Coordinates
version=1
nRows=10
nColumns=63
inDegrees=yes

Units are S.I. units (second, meters, Newtons, ...)
If the header above contains a line with 'inDegrees', this indicates whether rotational values are in degrees (yes) or radians (no).

endheader
time	pelvis_tilt	pelvis_list	pelvis_rotation	pelvis_tx	pelvis_ty	pelvis_tz	hip_flexion_r	hip_adduction_r	hip_rotation_r	knee_angle_r	knee_angle_r_beta	ankle_angle_r	subtalar_angle_r	mtp_angle_r	hip_flexion_l	hip_adduction_l	hip_rotation_l	knee_angle_l	knee_angle_l_beta	ankle_angle_l	subtalar_angle_l	mtp_angle_l	L5_S1_Flex_Ext	L5_S1_Lat_Bending	L5_S1_axial_rotation	L4_L5_Flex_Ext	L4_L5_Lat_Bending	L4_L5_axial_rotation	L3_L4_Flex_Ext	L3_L4_Lat_Bending	L3_L4_axial_rotation	L2_L3_Flex_Ext	L2_L3_Lat_Bending	L2_L3_axial_rotation	L1_L2_Flex_Ext	L1_L2_Lat_Bending	L1_L2_axial_rotation	L1_T12_Flex_Ext	L1_T12_Lat_Bending	L1_T12_axial_rotation	Abs_r3	Abs_r2	Abs_r1	Abs_t1	Abs_t2	neck_flexion	neck_bending	neck_rotation	arm_flex_r	arm_add_r	arm_rot_r	elbow_flex_r	pro_sup_r	wrist_flex_r	wrist_dev_r	arm_flex_l	arm_add_l	arm_rot_l	elbow_flex_l	pro_sup_l	wrist_flex_l	wrist_dev_l
6.783333	-7.115893	-1.478913	84.462328	0.264137	0.750565	0.718130	1.989347	-2.631270	3.135298	1.072061	0.018711	24.568942	-2.957141	0.000000	2.446697	3.139301	0.301803	1.044033	0.018222	24.777311	-1.222561	0.000000	0.148410	-0.334435	0.911146	0.275612	-0.444799	0.968093	0.243823	-0.813146	0.968093	0.169618	-0.813146	0.797253	0.137814	-0.681980	0.740306	0.084801	-0.518040	0.683359	1.060078	-3.783199	5.067521	0.000000	0.000000	18.142176	3.126929	3.585604	-5.473632	-12.740686	16.487829	41.066299	85.702974	-1.679961	9.555199	4.617989	-20.886822	56.785935	38.484557	89.050593	-8.159191	13.057898
6.800000	-7.288644	-1.420514	84.569366	0.264341	0.751018	0.718417	1.943772	-2.819061	2.935667	1.081150	0.018870	24.681850	-2.678865	0.000000	2.431534	3.301879	-0.043060	1.139182	0.019882	24.486353	-0.919860	0.000000	0.145959	-0.372417	0.884314	0.271061	-0.495314	0.939583	0.239796	-0.905494	0.939583	0.166817	-0.905494	0.773774	0.135538	-0.759432	0.718505	0.083401	-0.576873	0.663235	1.042572	-4.212852	4.918287	0.000000	0.000000	17.924133	3.357310	2.635760	-5.750651	-12.594624	16.168935	43.329747	85.688266	-1.772234	9.332345	3.871628	-21.319055	55.072190	39.178886	89.060248	-8.588876	12.687589
6.816667	-7.447497	-1.386831	84.675079	0.264512	0.751336	0.718578	1.911204	-2.985787	3.034762	1.072041	0.018711	24.740720	-2.778513	0.000000	2.422039	3.455126	-0.193218	1.227795	0.021429	24.163821	-0.926133	0.000000	0.145055	-0.406546	0.840166	0.269383	-0.540706	0.892677	0.238312	-0.988476	0.892677	0.165784	-0.988476	0.735145	0.134699	-0.829028	0.682635	0.082885	-0.629740	0.630125	1.036117	-4.598928	4.672752	0.000000	0.000000	17.821596	3.608085	1.836887	-6.010246	-12.433488	15.944827	45.474791	85.658786	-1.986435	8.910390	2.988418	-21.695569	52.943454	39.830433	89.045618	-8.883207	12.462986
6.833333	-7.582276	-1.362762	84.745230	0.264673	0.751528	0.718644	1.887746	-3.127098	3.196054	1.056180	0.018434	24.821826	-2.873496	0.000000	2.404944	3.586848	-0.359570	1.309686	0.022858	23.869969	-0.984553	0.000000	0.143310	-0.434715	0.786663	0.266141	-0.578171	0.835830	0.235444	-1.056967	0.835830	0.163789	-1.056967	0.688330	0.133078	-0.886472	0.639164	0.081887	-0.673374	0.589997	1.023650	-4.917588	4.375185	0.000000	0.000000	17.822413	3.854643	1.204120	-6.198907	-12.273640	15.842285	47.359040	85.540604	-2.216003	8.339474	2.075187	-21.984861	50.669394	40.293791	89.022264	-9.040960	12.275446
6.850000	-7.699346	-1.362206	84.768342	0.264852	0.751548	0.718555	1.890820	-3.246811	3.298027	1.038868	0.018132	24.973076	-2.791857	0.000000	2.392811	3.699729	-0.624232	1.379321	0.024074	23.669931	-0.964651	0.000000	0.144699	-0.457356	0.731171	0.268721	-0.608284	0.776869	0.237726	-1.112016	0.776869	0.165377	-1.112016	0.639774	0.134368	-0.932641	0.594076	0.082681	-0.708445	0.548378	1.033571	-5.173706	4.066551	0.000000	0.000000	17.933206	4.090044	0.738210	-6.332434	-12.105616	15.854030	48.938267	85.359226	-2.513792	7.808544	1.203232	-22.197728	48.523577	40.562626	88.998989	-9.140179	12.235070
6.866667	-7.779398	-1.362472	84.737221	0.265003	0.751457	0.718321	1.893252	-3.329682	3.452386	1.015017	0.017715	25.155544	-2.670661	0.000000	2.363228	3.779965	-0.974592	1.434499	0.025037	23.566735	-0.884966	0.000000	0.145699	-0.470916	0.681308	0.270578	-0.626318	0.723889	0.239369	-1.144985	0.723889	0.166519	-1.144985	0.596144	0.135296	-0.960292	0.553562	0.083252	-0.729449	0.510981	1.040714	-5.327095	3.789228	0.000000	0.000000	18.138148	4.259386	0.431566	-6.420212	-11.926294	15.761588	50.138261	85.237167	-2.705477	7.360792	0.483152	-22.275114	46.861355	40.463786	88.959875	-9.360945	11.992429
6.883333	-7.825314	-1.368409	84.641175	0.265145	0.751242	0.717930	1.899952	-3.376480	3.778365	0.981576	0.017132	25.344975	-2.663766	0.000000	2.319361	3.829763	-1.254335	1.463824	0.025549	23.538898	-0.942916	0.000000	0.148076	-0.475893	0.641735	0.274993	-0.632937	0.681843	0.243275	-1.157085	0.681843	0.169236	-1.157085	0.561518	0.137504	-0.970440	0.521410	0.084611	-0.737158	0.481301	1.057695	-5.383392	3.569137	0.000000	0.000000	18.431639	4.380766	0.277048	-6.454150	-11.746723	15.665690	50.947443	85.159805	-2.820031	7.194548	-0.070349	-22.232135	45.749992	40.048588	88.916713	-9.681891	11.668363
6.900000	-7.844684	-1.380771	84.495328	0.265280	0.750929	0.717413	1.912819	-3.394663	4.197401	0.942826	0.016455	25.559530	-2.697373	0.000000	2.270529	3.855319	-1.529791	1.471216	0.025678	23.599324	-1.024859	0.000000	0.152065	-0.473418	0.607481	0.282399	-0.629646	0.645448	0.249827	-1.151069	0.645448	0.173795	-1.151069	0.531546	0.141207	-0.965394	0.493578	0.086890	-0.733325	0.455611	1.086182	-5.355400	3.378626	0.000000	0.000000	18.796867	4.467234	0.309218	-6.392109	-11.583253	15.706888	51.299040	85.135932	-2.857238	7.195622	-0.493339	-22.085467	45.062884	39.343706	88.867697	-10.086698	11.166157
6.916667	-7.833036	-1.383963	84.289217	0.265386	0.750565	0.716794	1.917532	-3.384918	4.656788	0.901737	0.015738	25.792302	-2.700899	0.000000	2.200826	3.853840	-1.860396	1.454277	0.025382	23.762477	-1.023841	0.000000	0.155597	-0.462548	0.584120	0.288958	-0.615189	0.620628	0.255629	-1.124640	0.620628	0.177831	-1.124640	0.511105	0.144487	-0.943228	0.474598	0.088908	-0.716487	0.438090	1.111410	-5.232437	3.248702	0.000000	0.000000	19.200706	4.498283	0.524860	-6.253865	-11.459083	15.845140	51.254628	85.031220	-2.795403	7.415090	-0.764858	-21.846238	44.880149	38.378749	88.789729	-10.651970	10.421933
6.933333	-7.798331	-1.374299	84.070893	0.265434	0.750190	0.716138	1.909804	-3.357438	4.899103	0.868929	0.015166	26.072033	-2.415953	0.000000	2.120567	3.829959	-2.347348	1.427320	0.024911	24.042030	-0.722572	0.000000	0.157945	-0.445138	0.565523	0.293320	-0.592034	0.600868	0.259488	-1.082309	0.600868	0.180515	-1.082309	0.494833	0.146668	-0.907726	0.459488	0.090250	-0.689519	0.424142	1.128185	-5.035492	3.145270	0.000000	0.000000	19.602224	4.490032	0.941765	-6.038816	-11.377793	16.117148	50.842566	84.899388	-2.712410	7.671117	-0.896985	-21.538216	45.061310	37.259616	88.704493	-11.247525	9.598530
